ffmpeg version 3.4.8-0ubuntu0.2 Copyright (c) 2000-2020 the FFmpeg developers
  built with gcc 7 (Ubuntu 7.5.0-3ubuntu1~18.04)
  configuration: --prefix=/usr --extra-version=0ubuntu0.2 --toolchain=hardened --libdir=/usr/lib/x86_64-linux-gnu --incdir=/usr/include/x86_64-linux-gnu --enable-gpl --disable-stripping --enable-avresample --enable-avisynth --enable-gnutls --enable-ladspa --enable-libass --enable-libbluray --enable-libbs2b --enable-libcaca --enable-libcdio --enable-libflite --enable-libfontconfig --enable-libfreetype --enable-libfribidi --enable-libgme --enable-libgsm --enable-libmp3lame --enable-libmysofa --enable-libopenjpeg --enable-libopenmpt --enable-libopus --enable-libpulse --enable-librubberband --enable-librsvg --enable-libshine --enable-libsnappy --enable-libsoxr --enable-libspeex --enable-libssh --enable-libtheora --enable-libtwolame --enable-libvorbis --enable-libvpx --enable-libwavpack --enable-libwebp --enable-libx265 --enable-libxml2 --enable-libxvid --enable-libzmq --enable-libzvbi --enable-omx --enable-openal --enable-opengl --enable-sdl2 --enable-libdc1394 --enable-libdrm --enable-libiec61883 --enable-chromaprint --enable-frei0r --enable-libopencv --enable-libx264 --enable-shared
  libavutil      55. 78.100 / 55. 78.100
  libavcodec     57.107.100 / 57.107.100
  libavformat    57. 83.100 / 57. 83.100
  libavdevice    57. 10.100 / 57. 10.100
  libavfilter     6.107.100 /  6.107.100
  libavresample   3.  7.  0 /  3.  7.  0
  libswscale      4.  8.100 /  4.  8.100
  libswresample   2.  9.100 /  2.  9.100
  libpostproc    54.  7.100 / 54.  7.100
[rawvideo @ 0x5628892d1a20] Estimating duration from bitrate, this may be inaccurate
Input #0, rawvideo, from '../../SVC-Encoder-20220109T061506Z-001/SVC-Encoder/Dataset/RollerCoaster/ERP_8x8/tile_yuv/Tile_26_480x240.yuv':
  Duration: 00:00:10.00, start: 0.000000, bitrate: 41472 kb/s
    Stream #0:0: Video: rawvideo (I420 / 0x30323449), yuv420p, 480x240, 41472 kb/s, 30 tbr, 30 tbn, 30 tbc
Stream mapping:
  Stream #0:0 -> #0:0 (rawvideo (native) -> h264 (libx264))
Press [q] to stop, [?] for help
[libx264 @ 0x5628892dec60] using cpu capabilities: MMX2 SSE2Fast LZCNT SSSE3 SSE4.2 AVX
[libx264 @ 0x5628892dec60] profile High, level 2.1
Output #0, rawvideo, to 'RollerCoaster_Tile_26_480x240_x264_QP_20.h264':
  Metadata:
    encoder         : Lavf57.83.100
    Stream #0:0: Video: h264 (libx264), yuv420p, 480x240, q=-1--1, 30 fps, 30 tbn, 30 tbc
    Metadata:
      encoder         : Lavc57.107.100 libx264
    Side data:
      cpb: bitrate max/min/avg: 0/0/0 buffer size: 0 vbv_delay: -1
frame=  300 fps=0.0 q=26.0 LPSNR=Y:inf U:inf V:inf *:inf size=      45kB time=00:00:09.93 bitrate=  37.3kbits/s speed=21.9x    
video:45kB audio:0kB subtitle:0kB other streams:0kB global headers:0kB muxing overhead: 0.000000%
[libx264 @ 0x5628892dec60] frame I:2     Avg QP:19.58  size:  2365  PSNR Mean Y:54.13 U:56.67 V:57.19 Avg:54.88 Global:54.86
[libx264 @ 0x5628892dec60] frame P:76    Avg QP:19.74  size:   396  PSNR Mean Y:53.17 U:55.75 V:56.50 Avg:53.94 Global:53.92
[libx264 @ 0x5628892dec60] frame B:222   Avg QP:25.45  size:    52  PSNR Mean Y:52.90 U:55.55 V:56.28 Avg:53.68 Global:53.66
[libx264 @ 0x5628892dec60] consecutive B-frames:  1.0%  0.7%  1.0% 97.3%
[libx264 @ 0x5628892dec60] mb I  I16..4: 68.9% 28.2%  2.9%
[libx264 @ 0x5628892dec60] mb P  I16..4:  4.9%  1.5%  0.0%  P16..4: 16.6%  2.5%  0.5%  0.0%  0.0%    skip:74.0%
[libx264 @ 0x5628892dec60] mb B  I16..4:  0.0%  0.0%  0.0%  B16..8:  4.8%  0.4%  0.0%  direct: 0.0%  skip:94.8%  L0:41.2% L1:57.8% BI: 1.0%
[libx264 @ 0x5628892dec60] 8x8 transform intra:24.7% inter:77.0%
[libx264 @ 0x5628892dec60] coded y,uvDC,uvAC intra: 6.7% 29.2% 0.4% inter: 0.8% 1.6% 0.0%
[libx264 @ 0x5628892dec60] i16 v,h,dc,p: 31% 35% 19% 15%
[libx264 @ 0x5628892dec60] i8 v,h,dc,ddl,ddr,vr,hd,vl,hu: 24% 27% 41%  1%  2%  2%  3%  0%  0%
[libx264 @ 0x5628892dec60] i4 v,h,dc,ddl,ddr,vr,hd,vl,hu: 18% 21% 26%  1% 10%  3% 17%  1%  3%
[libx264 @ 0x5628892dec60] i8c dc,h,v,p: 57% 22% 19%  1%
[libx264 @ 0x5628892dec60] Weighted P-Frames: Y:1.3% UV:0.0%
[libx264 @ 0x5628892dec60] ref P L0: 76.9%  4.4% 13.4%  5.3%  0.1%
[libx264 @ 0x5628892dec60] ref B L0: 77.7% 17.6%  4.8%
[libx264 @ 0x5628892dec60] ref B L1: 89.2% 10.8%
[libx264 @ 0x5628892dec60] PSNR Mean Y:52.979 U:55.606 V:56.344 Avg:53.757 Global:53.732 kb/s:37.08
